<?xml version="1.0" encoding="UTF-8" standalone="no"?>
<!DOCTYPE svg PUBLIC "-//W3C//DTD SVG 1.1//EN" "http://www.w3.org/Graphics/SVG/1.1/DTD/svg11.dtd">
<svg width="100%" height="100%" viewBox="0 0 2249 703" version="1.1" xmlns="http://www.w3.org/2000/svg" xmlns:xlink="http://www.w3.org/1999/xlink" xml:space="preserve" xmlns:serif="http://www.serif.com/" style="fill-rule:evenodd;clip-rule:evenodd;stroke-linejoin:round;stroke-miterlimit:2;">
    <g transform="matrix(1,0,0,1,-1717,-132)">
        <g id="Artboard2" transform="matrix(1.329982,0,0,0.728497,-598.499113,132)">
            <rect x="1741" y="0" width="1691" height="965" style="fill:none;"/>
            <g transform="matrix(0.75189,0,0,1.372688,406.626518,-1551.13798)">
                <g transform="matrix(-1.810345,0,-0.458234,0.842663,3430.095793,244.208608)">
                    <path d="M337.273,1393.372L288,1490.703L288,1183L230,1183L229.197,1723.242L292.239,1596.9L321.356,1539.384L337.273,1393.372ZM408.632,1366.982L501.771,1183L443.771,1183L424.549,1220.97L408.632,1366.982Z" style="fill:url(#_Linear1);"/>
                </g>
                <g transform="matrix(-1.28291,-0,0,-1.030891,1921.472411,3210.545134)">
                    <path d="M-273.836,1757.595L-270.618,1770.532L-237,1695L-203.479,1770.313L-128.723,1469.819L-45.362,1469.819L-154.923,1910.214L-199.224,1910.214L-237,1825.341L-274.776,1910.214L-319.229,1910.214L-326.854,1879.564L-273.836,1757.595Z" style="fill:url(#_Linear2);"/>
                </g>
                <g transform="matrix(-1.810345,0,-0.458234,0.842663,3430.095793,243.918321)">
                    <path d="M287.486,1606.426L288,1183L230,1183L229.197,1723.242L287.486,1606.426Z" style="fill:url(#_Linear3);"/>
                </g>
                <g transform="matrix(-1.28291,-0,0,-1.030891,1921.472411,3210.545134)">
                    <path d="M-306.119,1627.832L-305.835,1628.971L-306.119,1627.832ZM-361.262,1741.257L-428.79,1469.819L-345.429,1469.819L-308.244,1619.288L-361.262,1741.257Z" style="fill:url(#_Linear4);"/>
                </g>
            </g>
            <g transform="matrix(7.137167,0,0,13.029978,-3153.067583,-5305.909534)">
                <g transform="matrix(24,0,0,24,781.205253,452.996775)">
                    <path d="M0.356,-0.244L0.166,-0.7L0.001,-0.7L0.356,0.041L0.711,-0.7L0.545,-0.7L0.356,-0.244Z" style="fill:white;fill-rule:nonzero;"/>
                </g>
                <g transform="matrix(24,0,0,24,798.279589,452.996775)">
                    <path d="M0.058,-0.638C0.058,-0.617 0.066,-0.6 0.081,-0.586C0.096,-0.572 0.114,-0.565 0.136,-0.565C0.157,-0.565 0.176,-0.572 0.191,-0.586C0.206,-0.6 0.213,-0.617 0.213,-0.638C0.213,-0.659 0.206,-0.677 0.191,-0.691C0.176,-0.705 0.157,-0.711 0.136,-0.711C0.114,-0.711 0.096,-0.705 0.081,-0.691C0.066,-0.677 0.058,-0.659 0.058,-0.638ZM0.072,-0.46L0.072,-0L0.198,-0L0.198,-0.46L0.072,-0.46Z" style="fill:white;fill-rule:nonzero;"/>
                </g>
                <g transform="matrix(24,0,0,24,804.787028,452.996775)">
                    <path d="M0.005,-0.46L0.005,-0.351L0.289,-0.351L0.289,-0.46L0.005,-0.46ZM0.084,-0.62L0.084,-0L0.209,-0L0.209,-0.62L0.084,-0.62Z" style="fill:white;fill-rule:nonzero;"/>
                </g>
                <g transform="matrix(24,0,0,24,811.832795,452.996775)">
                    <path d="M0.156,-0.143C0.156,-0.156 0.159,-0.167 0.165,-0.176C0.171,-0.185 0.18,-0.192 0.193,-0.197C0.206,-0.202 0.222,-0.205 0.242,-0.205C0.267,-0.205 0.29,-0.201 0.312,-0.195C0.335,-0.188 0.355,-0.178 0.373,-0.165L0.373,-0.225C0.366,-0.233 0.355,-0.242 0.34,-0.25C0.325,-0.259 0.306,-0.266 0.284,-0.272C0.261,-0.278 0.235,-0.281 0.206,-0.281C0.149,-0.281 0.104,-0.268 0.073,-0.242C0.041,-0.216 0.026,-0.181 0.026,-0.136C0.026,-0.105 0.033,-0.078 0.048,-0.057C0.063,-0.035 0.083,-0.018 0.108,-0.007C0.132,0.004 0.159,0.01 0.188,0.01C0.216,0.01 0.243,0.005 0.269,-0.005C0.294,-0.015 0.315,-0.03 0.332,-0.05C0.348,-0.07 0.356,-0.095 0.356,-0.124L0.34,-0.184C0.34,-0.162 0.335,-0.143 0.325,-0.127C0.315,-0.111 0.302,-0.1 0.286,-0.091C0.27,-0.083 0.252,-0.079 0.232,-0.079C0.218,-0.079 0.205,-0.082 0.193,-0.087C0.182,-0.091 0.173,-0.099 0.166,-0.108C0.159,-0.118 0.156,-0.13 0.156,-0.143ZM0.106,-0.33C0.113,-0.334 0.123,-0.34 0.137,-0.347C0.151,-0.353 0.168,-0.359 0.187,-0.364C0.207,-0.369 0.227,-0.371 0.248,-0.371C0.262,-0.371 0.274,-0.37 0.286,-0.367C0.298,-0.364 0.307,-0.36 0.315,-0.354C0.324,-0.348 0.33,-0.341 0.334,-0.332C0.338,-0.323 0.34,-0.312 0.34,-0.299L0.34,-0L0.465,-0L0.465,-0.326C0.465,-0.357 0.456,-0.384 0.439,-0.405C0.422,-0.427 0.398,-0.444 0.367,-0.455C0.336,-0.466 0.302,-0.472 0.262,-0.472C0.219,-0.472 0.18,-0.466 0.146,-0.454C0.111,-0.443 0.082,-0.43 0.058,-0.418L0.106,-0.33Z" style="fill:white;fill-rule:nonzero;"/>
                </g>
                <g transform="matrix(24,0,0,24,824.333405,452.996775)">
                    <rect x="0.064" y="-0.78" width="0.129" height="0.78" style="fill:white;fill-rule:nonzero;"/>
                </g>
                <g transform="matrix(24,0,0,24,830.522004,452.996775)">
                </g>
            </g>
            <g transform="matrix(7.435423,0,0,14.131023,-3033.040102,-5806.736079)">
                <g transform="matrix(24,0,0,24,846.413253,452.996775)">
                </g>
                <text x="781.205px" y="452.997px" style="font-family:'IBMPlexSerif-MediumItalic', 'IBM Plex Serif', serif;font-weight:500;font-style:italic;font-size:24px;fill:white;">Media</text>
            </g>
        </g>
    </g>
    <defs>
        <linearGradient id="_Linear1" x1="0" y1="0" x2="1" y2="0" gradientUnits="userSpaceOnUse" gradientTransform="matrix(136.294591,-250.396601,144.518572,294.37785,299.969934,1508.065617)"><stop offset="0" style="stop-color:rgb(255,255,255);stop-opacity:1"/><stop offset="1" style="stop-color:rgb(255,255,255);stop-opacity:1"/></linearGradient>
        <linearGradient id="_Linear2" x1="0" y1="0" x2="1" y2="0" gradientUnits="userSpaceOnUse" gradientTransform="matrix(281.491802,0,0,440.395568,-326.853825,1690.016683)"><stop offset="0" style="stop-color:rgb(255,255,255);stop-opacity:1"/><stop offset="1" style="stop-color:rgb(255,255,255);stop-opacity:1"/></linearGradient>
        <linearGradient id="_Linear3" x1="0" y1="0" x2="1" y2="0" gradientUnits="userSpaceOnUse" gradientTransform="matrix(-1.12967,-0.000002,486.552637,-0,259.964531,1773.047272)"><stop offset="0" style="stop-color:rgb(255,255,255);stop-opacity:1"/><stop offset="1" style="stop-color:rgb(255,255,255);stop-opacity:1"/></linearGradient>
        <linearGradient id="_Linear4" x1="0" y1="0" x2="1" y2="0" gradientUnits="userSpaceOnUse" gradientTransform="matrix(70.15301,291.010287,-414.828225,154.871975,-430.683041,1462.370476)"><stop offset="0" style="stop-color:rgb(255,255,255);stop-opacity:1"/><stop offset="1" style="stop-color:rgb(255,255,255);stop-opacity:1"/></linearGradient>
    </defs>
</svg>