<?xml version="1.0" encoding="UTF-8"?>
<svg id="Layer_1" xmlns="http://www.w3.org/2000/svg" xmlns:xlink="http://www.w3.org/1999/xlink" xmlns:serif="http://www.serif.com/" version="1.1" viewBox="0 0 1550.2 388.89">
  <!-- Generator: Adobe Illustrator 30.6.0, SVG Export Plug-In . SVG Version: 2.1.4 Build 109)  -->
  <defs>
    <style>
      .st0 {
        font-family: IBMPlexSerif-MediumItalic, 'IBM Plex Serif';
        font-size: 210.92px;
        font-style: italic;
        font-weight: 500;
        isolation: isolate;
      }

      .st0, .st1 {
        fill: #001676;
      }

      .st2 {
        fill: url(#linear-gradient);
      }

      .st2, .st3, .st4, .st5 {
        fill-rule: evenodd;
      }

      .st3 {
        fill: url(#linear-gradient1);
      }

      .st4 {
        fill: url(#linear-gradient2);
      }

      .st5 {
        fill: url(#linear-gradient3);
      }
    </style>
    <linearGradient id="linear-gradient" x1="-174.95" y1="746.03" x2="-173.66" y2="746.03" gradientTransform="translate(-271961.4934 126637.637) rotate(-122.0298) scale(212.4783 399.3007)" gradientUnits="userSpaceOnUse">
      <stop offset="0" stop-color="#001676"/>
      <stop offset="1" stop-color="#0757fe"/>
    </linearGradient>
    <linearGradient id="linear-gradient1" x1="-25.06" y1="359.8" x2="281.38" y2="-28.22" gradientUnits="userSpaceOnUse">
      <stop offset=".16" stop-color="#b625e5"/>
      <stop offset=".6" stop-color="#0757fe"/>
      <stop offset="1" stop-color="#001676"/>
    </linearGradient>
    <linearGradient id="linear-gradient2" x1="186.17" y1="343.06" x2="370.36" y2="16.85" gradientUnits="userSpaceOnUse">
      <stop offset="0" stop-color="#0757fe"/>
      <stop offset="1" stop-color="#001676"/>
    </linearGradient>
    <linearGradient id="linear-gradient3" x1="286.96" y1="184.57" x2="404.9" y2="381.24" gradientUnits="userSpaceOnUse">
      <stop offset=".12" stop-color="#001676"/>
      <stop offset="1" stop-color="#0757fe"/>
    </linearGradient>
  </defs>
  <g id="Artboard2">
    <g>
      <path class="st1" d="M668.1,229.22l-36.95-88.69h-32.09l69.04,144.12,69.04-144.12h-32.29l-36.76,88.69Z"/>
      <path class="st1" d="M748.51,152.59c0,4.08,1.56,7.39,4.47,10.11s6.42,4.08,10.7,4.08,7.78-1.36,10.7-4.08,4.28-6.03,4.28-10.11-1.36-7.59-4.28-10.31-6.61-3.89-10.7-3.89-7.78,1.17-10.7,3.89-4.47,6.22-4.47,10.31ZM751.23,187.21v89.46h24.51v-89.46h-24.51Z"/>
      <path class="st1" d="M790.94,187.21v21.2h55.23v-21.2h-55.23ZM806.3,156.09v120.58h24.31v-120.58h-24.31Z"/>
      <path class="st1" d="M877.4,248.86c0-2.53.58-4.67,1.75-6.42,1.17-1.75,2.92-3.11,5.45-4.08,2.53-.97,5.64-1.56,9.53-1.56,4.86,0,9.34.78,13.61,1.94,4.47,1.36,8.36,3.31,11.86,5.83v-11.67c-1.36-1.56-3.5-3.31-6.42-4.86-2.92-1.75-6.61-3.11-10.89-4.28-4.47-1.17-9.53-1.75-15.17-1.75-11.09,0-19.84,2.53-25.87,7.59-6.22,5.06-9.14,11.86-9.14,20.62,0,6.03,1.36,11.28,4.28,15.36,2.92,4.28,6.81,7.59,11.67,9.72,4.67,2.14,9.92,3.31,15.56,3.31s10.7-.97,15.75-2.92c4.86-1.94,8.95-4.86,12.25-8.75,3.11-3.89,4.67-8.75,4.67-14.39l-3.11-11.67c0,4.28-.97,7.97-2.92,11.09-1.94,3.11-4.47,5.25-7.59,7-3.11,1.56-6.61,2.33-10.5,2.33-2.72,0-5.25-.58-7.59-1.56-2.14-.78-3.89-2.33-5.25-4.08-1.36-1.94-1.94-4.28-1.94-6.81ZM867.68,212.49c1.36-.78,3.31-1.94,6.03-3.31,2.72-1.17,6.03-2.33,9.72-3.31,3.89-.97,7.78-1.36,11.86-1.36,2.72,0,5.06.19,7.39.78,2.33.58,4.08,1.36,5.64,2.53,1.75,1.17,2.92,2.53,3.7,4.28.78,1.75,1.17,3.89,1.17,6.42v58.15h24.31v-63.4c0-6.03-1.75-11.28-5.06-15.36-3.31-4.28-7.97-7.59-14-9.72-6.03-2.14-12.64-3.31-20.42-3.31-8.36,0-15.95,1.17-22.56,3.5-6.81,2.14-12.45,4.67-17.12,7l9.34,17.12Z"/>
      <rect class="st1" x="960.81" y="124.97" width="25.09" height="151.7"/>
    </g>
    <text class="st0" transform="translate(999.7 275.4) scale(.96 1)"><tspan x="0" y="0">Media</tspan></text>
  </g>
  <path class="st2" d="M171.94,151.59l38.08,70.02L330.39.25h89.64l-210.1,388.65-48.01-90.89-22.5-41.38,32.52-105.04ZM71.97,132.6L0,.25h89.64l14.85,27.32-32.52,105.04Z"/>
  <path class="st3" d="M250.27,134.77l-3.52-11.39-36.82,66.47-36.71-66.28-81.88,264.46H.04L120.03.46h48.52l41.37,74.7L251.3.46h48.69l8.35,26.97-58.07,107.34Z"/>
  <path class="st4" d="M165.54,304.61L330.39,0h89.64l-210.1,388.65-44.39-84.04Z"/>
  <path class="st5" d="M285.63,248.98l-.31-1,.31,1ZM346.02,149.15l73.96,238.89h-91.3l-40.73-131.55,58.07-107.34Z"/>
</svg>